<svg viewBox="0 0 23 29"  xmlns="http://www.w3.org/2000/svg">
<path d="M19.75 0.75H3.25C1.73337 0.75 0.5 1.98337 0.5 3.5V26.875C0.5 27.2397 0.644866 27.5894 0.902728 27.8473C1.16059 28.1051 1.51033 28.25 1.875 28.25H21.125C21.4897 28.25 21.8394 28.1051 22.0973 27.8473C22.3551 27.5894 22.5 27.2397 22.5 26.875V3.5C22.5 1.98337 21.2666 0.75 19.75 0.75ZM19.75 25.5H3.25V3.5H19.75V25.5Z" />
<path d="M6 6.25H10.125V9H6V6.25ZM12.875 6.25H17V9H12.875V6.25ZM6 11.75H10.125V14.5H6V11.75ZM12.875 11.7926H17V14.5H12.875V11.7926ZM6 17.25H10.125V20H6V17.25ZM12.875 17.25H17V20H12.875V17.25Z" />
</svg>