<svg viewBox="0 0 25 29" xmlns="http://www.w3.org/2000/svg">
<path d="M2.87891 28.2503H22.1289C23.6455 28.2503 24.8789 27.0169 24.8789 25.5003V13.1253C24.8791 12.9447 24.8436 12.7658 24.7745 12.599C24.7053 12.4322 24.6039 12.2807 24.476 12.1532L13.476 1.15315C13.3484 1.02535 13.1969 0.923962 13.0301 0.854784C12.8633 0.785607 12.6845 0.75 12.5039 0.75C12.3233 0.75 12.1445 0.785607 11.9777 0.854784C11.8109 0.923962 11.6594 1.02535 11.5318 1.15315L0.531782 12.1532C0.40391 12.2807 0.302491 12.4322 0.233354 12.599C0.164216 12.7658 0.12872 12.9447 0.128907 13.1253V25.5003C0.128907 27.0169 1.36228 28.2503 2.87891 28.2503ZM9.75391 25.5003V18.6253H15.2539V25.5003H9.75391ZM2.87891 13.6945L12.5039 4.06953L22.1289 13.6945L22.1303 25.5003H18.0039V18.6253C18.0039 17.1087 16.7705 15.8753 15.2539 15.8753H9.75391C8.23728 15.8753 7.00391 17.1087 7.00391 18.6253V25.5003H2.87891V13.6945Z" />
</svg>
