<svg width="24" height="24" viewBox="0 0 24 24" fill="none" xmlns="http://www.w3.org/2000/svg">
<path fill-rule="evenodd" clip-rule="evenodd" d="M12.8335 1.31477L15.5355 6.89794C15.6708 7.17955 15.9321 7.37609 16.2355 7.42162L22.2846 8.3192C22.5296 8.35275 22.7501 8.48457 22.9006 8.6859C23.183 9.06338 23.1398 9.59785 22.8015 9.9226L18.4171 14.2775C18.1943 14.4932 18.0951 14.8095 18.1535 15.1175L19.2035 21.2627C19.277 21.772 18.9386 22.249 18.4428 22.3316C18.2375 22.364 18.0275 22.3304 17.8408 22.2358L12.4531 19.3345C12.1825 19.1835 11.8581 19.1835 11.5875 19.3345L6.16014 22.2514C5.70631 22.4886 5.15098 22.3125 4.90364 21.8559C4.80914 21.6713 4.77648 21.4616 4.80914 21.2567L5.85914 15.1115C5.91164 14.8047 5.81248 14.4896 5.59548 14.2727L1.18781 9.91901C0.828476 9.55231 0.826142 8.95553 1.18431 8.58643C1.18548 8.58523 1.18664 8.58284 1.18781 8.58164C1.33598 8.44383 1.51798 8.35155 1.71514 8.3156L7.76548 7.41803C8.06764 7.3689 8.32781 7.17476 8.46548 6.89315L11.1651 1.31477C11.2736 1.08828 11.4661 0.91452 11.6995 0.835428C11.934 0.755138 12.1906 0.774312 12.4111 0.888156C12.592 0.98043 12.7401 1.13023 12.8335 1.31477Z" fill="#EEC066"/>
</svg>
