<svg width="14" height="14" viewBox="0 0 14 14"  xmlns="http://www.w3.org/2000/svg">
<path d="M11.2428 1.34314L1.34334 11.2426C0.952813 11.6332 0.952813 12.2663 1.34334 12.6568C1.73386 13.0474 2.36703 13.0474 2.75755 12.6568L12.657 2.75735C13.0476 2.36682 13.0476 1.73366 12.657 1.34314C12.2665 0.952612 11.6334 0.952611 11.2428 1.34314Z" />
<path d="M12.6569 11.2426L2.7574 1.34315C2.36688 0.95263 1.73371 0.95263 1.34319 1.34315C0.952662 1.73368 0.952662 2.36684 1.34319 2.75737L11.2427 12.6569C11.6332 13.0474 12.2664 13.0474 12.6569 12.6569C13.0474 12.2663 13.0474 11.6332 12.6569 11.2426Z" />
</svg>
