<svg width="18" height="18" viewBox="0 0 18 18"  xmlns="http://www.w3.org/2000/svg">
<path d="M8.99996 17.3334C4.39746 17.3334 0.666626 13.6026 0.666626 9.00008C0.666626 4.39758 4.39746 0.666748 8.99996 0.666748C13.6025 0.666748 17.3333 4.39758 17.3333 9.00008C17.3333 13.6026 13.6025 17.3334 8.99996 17.3334ZM7.09163 15.3892C6.26947 13.6453 5.79319 11.7586 5.68913 9.83342H2.38496C2.54711 11.1158 3.07823 12.3236 3.91377 13.3098C4.74931 14.2961 5.8533 15.0185 7.09163 15.3892ZM7.35829 9.83342C7.48413 11.8659 8.06496 13.7751 8.99996 15.4601C9.96023 13.7305 10.5212 11.808 10.6416 9.83342H7.35829ZM15.615 9.83342H12.3108C12.2067 11.7586 11.7304 13.6453 10.9083 15.3892C12.1466 15.0185 13.2506 14.2961 14.0862 13.3098C14.9217 12.3236 15.4528 11.1158 15.615 9.83342ZM2.38496 8.16675H5.68913C5.79319 6.24157 6.26947 4.35482 7.09163 2.61091C5.8533 2.98165 4.74931 3.70404 3.91377 4.69033C3.07823 5.67661 2.54711 6.88433 2.38496 8.16675ZM7.35913 8.16675H10.6408C10.5206 6.19225 9.95994 4.26969 8.99996 2.54008C8.03969 4.26962 7.47959 6.19218 7.35913 8.16675ZM10.9083 2.61091C11.7304 4.35482 12.2067 6.24157 12.3108 8.16675H15.615C15.4528 6.88433 14.9217 5.67661 14.0862 4.69033C13.2506 3.70404 12.1466 2.98165 10.9083 2.61091Z" />
</svg>
