<svg width="49" height="60" viewBox="0 0 49 60" xmlns="http://www.w3.org/2000/svg">
<path d="M41.7358 42.0276L24.5 59.2635L7.26418 42.0276C3.8553 38.6187 1.53384 34.2755 0.593348 29.5472C-0.347143 24.8189 0.135581 19.918 1.98048 15.464C3.82537 11.0101 6.94958 7.20325 10.958 4.5249C14.9665 1.84655 19.6791 0.416992 24.5 0.416992C29.3209 0.416992 34.0336 1.84655 38.042 4.5249C42.0504 7.20325 45.1746 11.0101 47.0195 15.464C48.8644 19.918 49.3472 24.8189 48.4067 29.5472C47.4662 34.2755 45.1447 38.6187 41.7358 42.0276ZM24.5 30.2085C25.9366 30.2085 27.3143 29.6378 28.3302 28.622C29.346 27.6061 29.9167 26.2284 29.9167 24.7918C29.9167 23.3552 29.346 21.9775 28.3302 20.9616C27.3143 19.9458 25.9366 19.3751 24.5 19.3751C23.0634 19.3751 21.6857 19.9458 20.6698 20.9616C19.654 21.9775 19.0833 23.3552 19.0833 24.7918C19.0833 26.2284 19.654 27.6061 20.6698 28.622C21.6857 29.6378 23.0634 30.2085 24.5 30.2085Z" />
</svg>
