<svg width="16" height="16" viewBox="0 0 16 16" xmlns="http://www.w3.org/2000/svg">
<path d="M13.9999 11.2171V11.1981C14.0039 11.0346 13.9479 10.8753 13.8425 10.7503C13.7372 10.6252 13.5897 10.543 13.4279 10.5191C12.6968 10.4229 11.9789 10.2444 11.2879 9.9871C11.1681 9.94181 11.0378 9.93168 10.9123 9.9579C10.7869 9.98412 10.6716 10.0456 10.5799 10.1351L9.68591 11.0271C9.57226 11.1408 9.42445 11.2141 9.26514 11.2358C9.10584 11.2575 8.94382 11.2263 8.80391 11.1471C6.92703 10.0824 5.37235 8.53084 4.30391 6.6561C4.22421 6.51598 4.19277 6.35355 4.21446 6.19381C4.23614 6.03408 4.30974 5.8859 4.42391 5.7721L5.31491 4.8821C5.40499 4.79099 5.46701 4.67593 5.4936 4.5506C5.52019 4.42527 5.51023 4.29494 5.46491 4.1751C5.20781 3.48778 5.02934 2.77357 4.93291 2.0461C4.90909 1.88378 4.82688 1.73572 4.70169 1.62968C4.57651 1.52364 4.41694 1.4669 4.25291 1.4701H2.14291C2.05074 1.4703 1.95958 1.48941 1.87508 1.52625C1.79059 1.56308 1.71454 1.61685 1.65165 1.68424C1.58876 1.75163 1.54036 1.8312 1.50945 1.91804C1.47853 2.00487 1.46576 2.09713 1.47191 2.1891C1.68991 4.2451 2.39191 6.2211 3.52191 7.9631C4.54689 9.57159 5.91361 10.9345 7.52491 11.9551C9.25324 13.0738 11.2193 13.7727 13.2659 13.9961C13.3592 14.0043 13.4532 13.993 13.5419 13.9629C13.6306 13.9327 13.7121 13.8845 13.7811 13.8212C13.8501 13.7579 13.9052 13.6809 13.9429 13.5952C13.9806 13.5094 14 13.4168 13.9999 13.3231V11.2161V11.2171ZM15.4699 13.3211C15.4714 13.6207 15.4099 13.9172 15.2895 14.1915C15.169 14.4658 14.9923 14.7117 14.7708 14.9134C14.5492 15.115 14.2878 15.2679 14.0034 15.3621C13.719 15.4563 13.418 15.4897 13.1199 15.4601C10.8429 15.2133 8.65517 14.4369 6.73191 13.1931C4.94215 12.0589 3.42391 10.5448 2.28491 8.7581C1.03096 6.8255 0.251129 4.62409 0.00891176 2.3331C-0.018226 2.0368 0.016779 1.73811 0.111688 1.45611C0.206596 1.17412 0.359318 0.915041 0.560085 0.69545C0.760852 0.475859 1.00524 0.30059 1.27762 0.180855C1.55 0.0611197 1.84438 -0.000444745 2.14191 9.96088e-05H4.24491C4.76563 -0.00491764 5.27038 0.179754 5.66492 0.519635C6.05945 0.859516 6.3168 1.33137 6.38891 1.8471C6.47091 2.4671 6.62191 3.0751 6.84091 3.6581C6.98521 4.04206 7.01611 4.45941 6.92995 4.86044C6.84379 5.26147 6.64418 5.62929 6.35491 5.9201L5.86891 6.4051C6.68941 7.68117 7.77627 8.76462 9.05491 9.5811L9.54491 9.0911C9.83618 8.80387 10.2035 8.60596 10.6036 8.52073C11.0037 8.4355 11.4199 8.46651 11.8029 8.6101C12.3899 8.8291 12.9999 8.9801 13.6269 9.0631C14.1456 9.13543 14.6197 9.39543 14.9595 9.79387C15.2994 10.1923 15.4813 10.7015 15.4709 11.2251V13.3211H15.4699Z"/>
</svg>
