<svg width="13" height="13" viewBox="0 0 13 13" xmlns="http://www.w3.org/2000/svg">
<path fill-rule="evenodd" clip-rule="evenodd" d="M6.94633 1.15052L8.39383 4.06239C8.46633 4.20927 8.60633 4.31177 8.76883 4.33552L12.0095 4.80364C12.1407 4.82114 12.2588 4.88989 12.3395 4.99489C12.4907 5.19177 12.4676 5.47052 12.2863 5.63989L9.93758 7.91114C9.81821 8.02364 9.76508 8.18864 9.79633 8.34927L10.3588 11.5543C10.3982 11.8199 10.217 12.0686 9.95133 12.1118C9.84133 12.1286 9.72883 12.1111 9.62883 12.0618L6.74258 10.5486C6.59758 10.4699 6.42383 10.4699 6.27883 10.5486L3.37133 12.0699C3.12821 12.1936 2.83071 12.1018 2.69821 11.8636C2.64758 11.7674 2.63008 11.658 2.64758 11.5511L3.21008 8.34614C3.23821 8.18614 3.18508 8.02177 3.06883 7.90864L0.707581 5.63802C0.515081 5.44677 0.51383 5.13552 0.705706 4.94302C0.706331 4.94239 0.706956 4.94114 0.707581 4.94052C0.786956 4.86864 0.884456 4.82052 0.990081 4.80177L4.23133 4.33364C4.39321 4.30802 4.53258 4.20677 4.60633 4.05989L6.05258 1.15052C6.11071 1.03239 6.21383 0.941769 6.33883 0.900519C6.46446 0.858644 6.60196 0.868644 6.72008 0.928019C6.81696 0.976144 6.89633 1.05427 6.94633 1.15052Z"/>
</svg>
