<svg width="119" height="22" viewBox="0 0 119 22" fill="none" xmlns="http://www.w3.org/2000/svg">
<path d="M20.7484 1.86414C21.0734 1.31613 21.4741 1.04175 21.9507 1.04102C22.384 1.04102 22.7523 1.25434 23.0556 1.68098C23.3688 2.13875 23.5283 2.68172 23.5116 3.23345C23.5116 3.78146 23.4033 4.22282 23.1867 4.55751L23.1542 4.60275L15.2869 19.4963C14.9269 20.165 14.4247 20.7495 13.8145 21.2098C13.2806 21.627 12.6221 21.8599 11.9406 21.8724C11.2591 21.885 10.5923 21.6766 10.0428 21.2793C9.43816 20.8482 8.94303 20.2852 8.59621 19.6342L0.693081 4.78702C0.557332 4.5639 0.447926 4.32623 0.367002 4.07864C0.278164 3.80554 0.234285 3.5202 0.237023 3.23345C0.22037 2.68172 0.379876 2.13875 0.693081 1.68098C0.995625 1.25507 1.36391 1.04175 1.79793 1.04102C2.32084 1.04102 2.73171 1.33047 3.03051 1.90938L10.6042 16.1166C10.7787 16.3934 10.9688 16.6605 11.1734 16.9166C11.3975 17.2067 11.634 17.3502 11.8726 17.3502C12.1113 17.3502 12.3433 17.2067 12.5707 16.9166C12.7731 16.6659 12.9527 16.3982 13.1075 16.1166L20.7484 1.86414Z" fill="white"/>
<path d="M24.6488 20.1371C24.3238 20.6844 23.9231 20.9584 23.4465 20.9591C23.0124 20.9591 22.6441 20.7458 22.3416 20.3192C22.0269 19.8619 21.8662 19.3188 21.8822 18.7667C21.8822 18.2187 21.9909 17.7773 22.2083 17.4426L30.1103 2.50388C30.4566 1.82936 30.9572 1.24318 31.5726 0.791418C32.1125 0.374076 32.776 0.141498 33.4623 0.128953C34.1486 0.116409 34.8203 0.324584 35.3757 0.721906C35.9836 1.14518 36.4753 1.71048 36.8066 2.36706L44.7052 17.2142C44.8395 17.4379 44.9485 17.6755 45.0302 17.9226C45.1189 18.1957 45.1628 18.4811 45.1602 18.7678C45.177 19.3194 45.0179 19.8623 44.7052 20.3203C44.4012 20.7476 44.0329 20.961 43.6004 20.9602C43.0775 20.9602 42.6666 20.6708 42.3678 20.0919L34.7907 5.88355C34.615 5.60748 34.425 5.34047 34.2215 5.0836C33.9974 4.79561 33.761 4.64996 33.5234 4.64996C33.2859 4.64996 33.0517 4.79561 32.8242 5.0836C32.6226 5.33482 32.4431 5.60243 32.2875 5.88355L24.6488 20.1371Z" fill="white"/>
<path d="M47.2402 20.3194C46.927 19.8617 46.7679 19.3186 46.7852 18.7669V3.23345C46.7682 2.68184 46.9274 2.13888 47.2402 1.68098C47.5442 1.25507 47.9125 1.04175 48.345 1.04102H67.8166C68.4199 1.04015 69.0113 1.20648 69.5231 1.52099C70.0729 1.85833 70.548 2.30111 70.9204 2.82299C71.3421 3.41393 71.6609 4.06984 71.8639 4.76385C72.0943 5.543 72.2075 6.35116 72.2001 7.16261C72.206 7.87963 72.1132 8.59412 71.9244 9.28664C71.757 9.90135 71.5112 10.4927 71.1927 11.0465C71.511 11.5997 71.7568 12.1903 71.9244 12.8042C72.1112 13.4817 72.2039 14.181 72.2001 14.883C72.2089 15.687 72.0956 16.4877 71.8639 17.2586C71.658 17.9447 71.3393 18.5929 70.9204 19.1774C70.5483 19.6995 70.073 20.1423 69.5231 20.4794C69.0113 20.7939 68.4199 20.9602 67.8166 20.9594H48.345C47.9125 20.9594 47.5442 20.7461 47.2402 20.3194ZM49.9059 5.42368V8.80446H67.979C68.304 8.80446 68.5856 8.65219 68.8239 8.34765C69.0622 8.04312 69.1814 7.647 69.1814 7.1593C69.1896 6.72617 69.059 6.30149 68.8082 5.94558C68.558 5.59617 68.2707 5.4211 67.9465 5.42036L49.9059 5.42368ZM49.9059 16.5679H67.9465C68.2715 16.5679 68.5587 16.4005 68.8082 16.0659C69.0604 15.7202 69.1914 15.303 69.1814 14.8775C69.199 14.4431 69.0676 14.0156 68.8082 13.6638C68.558 13.3438 68.2707 13.1838 67.9465 13.1838H49.9059V16.5679Z" fill="white"/>
<path d="M94.3405 1.86427C94.6654 1.31625 95.0662 1.04188 95.5428 1.04114C95.9768 1.04114 96.3451 1.25446 96.6476 1.68111C96.9608 2.13887 97.1204 2.68185 97.1037 3.23357C97.1037 3.78159 96.9954 4.22294 96.7787 4.55764L96.7462 4.60288L88.879 19.4964C88.5169 20.1651 88.0128 20.7491 87.401 21.2089C86.867 21.6261 86.2086 21.8589 85.5271 21.8714C84.8455 21.884 84.1787 21.6756 83.6293 21.2784C83.0246 20.8472 82.5295 20.2842 82.1827 19.6332L74.2851 4.78604C74.1494 4.56292 74.04 4.32525 73.959 4.07766C73.8702 3.80456 73.8263 3.51923 73.8291 3.23247C73.8124 2.68075 73.9719 2.13777 74.2851 1.68C74.5839 1.2541 74.9522 1.04077 75.39 1.04004C75.9129 1.04004 76.3238 1.3295 76.6226 1.90841L84.1963 16.1156C84.3708 16.3925 84.5608 16.6595 84.7655 16.9156C84.9896 17.2058 85.226 17.3492 85.4647 17.3492C85.7034 17.3492 85.9353 17.2058 86.1628 16.9156C86.3651 16.6649 86.5447 16.3972 86.6995 16.1156L94.3405 1.86427Z" fill="white"/>
<path d="M98.2413 20.1371C97.9163 20.6844 97.5155 20.9584 97.0389 20.9591C96.6049 20.9591 96.2366 20.7458 95.9341 20.3192C95.6206 19.8615 95.4611 19.3185 95.478 18.7667C95.478 18.2187 95.5867 17.7773 95.8041 17.4426L103.703 2.50388C104.048 1.82995 104.546 1.24381 105.159 0.791419C105.699 0.374076 106.363 0.141498 107.049 0.128953C107.735 0.116409 108.407 0.324584 108.963 0.721907C109.574 1.1435 110.07 1.70852 110.405 2.36595L118.303 17.2131C118.438 17.4368 118.547 17.6744 118.628 17.9215C118.717 18.1946 118.761 18.48 118.758 18.7667C118.775 19.3183 118.616 19.8612 118.303 20.3192C117.999 20.7466 117.631 20.9599 117.198 20.9591C116.676 20.9591 116.265 20.6697 115.966 20.0908L108.388 5.88355C108.212 5.60748 108.022 5.34048 107.818 5.0836C107.594 4.79561 107.358 4.64997 107.12 4.64997C106.883 4.64997 106.649 4.79561 106.421 5.0836C106.22 5.33483 106.04 5.60244 105.884 5.88355L98.2413 20.1371Z" fill="white"/>
</svg>


