<svg width="880" height="880" viewBox="0 0 880 880" fill="none" xmlns="http://www.w3.org/2000/svg">
<path d="M880 0.5H0V880.5H880V0.5Z" fill="url(#paint0_linear)"/>
<path d="M713.81 229.87C723.81 217.87 736.184 211.853 750.93 211.82C757.261 211.801 763.532 213.035 769.384 215.451C775.235 217.866 780.551 221.415 785.026 225.893C789.5 230.371 793.044 235.69 795.455 241.543C797.865 247.397 799.094 253.67 799.07 260C799.07 272 795.737 281.693 789.07 289.08L545.31 617C533.977 632.373 518.933 644.913 500.18 654.62C481.598 664.282 460.944 669.279 440 669.18C420.201 669.24 400.647 664.794 382.82 656.18C365.356 647.936 350.198 635.509 338.69 620L95.0001 294.07C90.9899 289.355 87.6268 284.125 85.0001 278.52C82.3113 272.709 80.9451 266.373 81.0001 259.97C80.9803 253.642 82.2119 247.373 84.624 241.523C87.0362 235.673 90.5812 230.357 95.0552 225.882C99.5293 221.407 104.844 217.861 110.694 215.448C116.543 213.034 122.812 211.802 129.14 211.82C145.2 211.82 157.907 218.173 167.26 230.88L400.89 542.8C406.401 548.983 412.26 554.846 418.44 560.36C425.48 566.7 432.667 569.873 440 569.88C447.333 569.887 454.52 566.713 461.56 560.36C467.614 555.034 473.158 549.155 478.12 542.8L713.81 229.87Z" fill="white"/>
<defs>
<linearGradient id="paint0_linear" x1="0" y1="440.5" x2="880" y2="440.5" gradientUnits="userSpaceOnUse">
<stop stop-color="#36B4C4"/>
<stop offset="0.31" stop-color="#6094B8"/>
<stop offset="0.66" stop-color="#7A7FAF"/>
<stop offset="1" stop-color="#AD57A0"/>
</linearGradient>
</defs>
</svg>
