<svg width="40" height="40" viewBox="0 0 40 40" fill="none" xmlns="http://www.w3.org/2000/svg">
<path d="M40.6216 0H0V40H40.6216V0Z" fill="white"/>
<path d="M32.9505 10.4264C33.4129 9.88061 33.984 9.60697 34.6638 9.6055C34.9559 9.60462 35.2454 9.66066 35.5154 9.77037C35.7855 9.88009 36.0308 10.0413 36.2374 10.2448C36.4439 10.4483 36.6075 10.6899 36.7188 10.9559C36.8301 11.2219 36.8868 11.5069 36.8858 11.7946C36.8858 12.3419 36.7315 12.7833 36.423 13.1187L25.1717 28.0243C24.5999 28.7596 23.8642 29.3557 23.0214 29.7668C22.1787 30.1779 21.2513 30.393 20.3108 30.3955C19.397 30.3976 18.4946 30.195 17.672 29.803C16.8652 29.431 16.1643 28.8685 15.6315 28.1656L4.38469 13.3449C4.19917 13.1302 4.04319 12.8924 3.92079 12.6376C3.79681 12.3735 3.73367 12.0856 3.7359 11.7946C3.73486 11.5069 3.79162 11.2219 3.90291 10.9559C4.01419 10.6899 4.17781 10.4483 4.38433 10.2448C4.59086 10.0413 4.83622 9.88009 5.10628 9.77037C5.37634 9.66066 5.66577 9.60462 5.95792 9.6055C6.30138 9.59488 6.64213 9.66859 6.94944 9.82C7.25675 9.9714 7.52097 10.1957 7.71828 10.4728L18.5057 24.6502C18.76 24.9315 19.0305 25.1982 19.3158 25.449C19.6396 25.737 19.9724 25.8816 20.3108 25.8816C20.6493 25.8816 20.9832 25.737 21.3059 25.449C21.5859 25.2073 21.8418 24.9398 22.0701 24.6502L32.9505 10.4264Z" fill="black"/>
</svg>

