<svg width="32" height="32" viewBox="0 0 32 32" fill="none" xmlns="http://www.w3.org/2000/svg">
<path d="M32.0597 0H0.22168V31.8381H32.0597V0Z" fill="white"/>
<path d="M26.047 8.2985C26.4094 7.86406 26.8571 7.64626 27.3899 7.64509C27.6188 7.64439 27.8457 7.68899 28.0573 7.77632C28.269 7.86365 28.4613 7.99199 28.6232 8.15394C28.7851 8.31589 28.9133 8.50825 29.0005 8.71996C29.0877 8.93167 29.1322 9.15855 29.1314 9.38752C29.1314 9.82313 29.0105 10.1744 28.7687 10.4414L19.9503 22.3056C19.502 22.8908 18.9254 23.3653 18.2649 23.6925C17.6044 24.0197 16.8776 24.1909 16.1404 24.1929C15.4242 24.1946 14.7169 24.0333 14.0722 23.7213C13.4404 23.4239 12.892 22.975 12.4755 22.4145L3.65796 10.6214C3.51256 10.4506 3.3903 10.2613 3.29437 10.0585C3.1972 9.84825 3.14772 9.61913 3.14946 9.38752C3.14865 9.15855 3.19313 8.93167 3.28036 8.71996C3.36758 8.50825 3.49582 8.31589 3.65768 8.15394C3.81955 7.99199 4.01186 7.86365 4.22352 7.77632C4.43519 7.68899 4.66204 7.64439 4.89102 7.64509C5.16021 7.63663 5.42728 7.69531 5.66814 7.81582C5.909 7.93633 6.11609 8.11488 6.27074 8.33538L14.7256 19.6199C14.9249 19.8438 15.1369 20.0561 15.3606 20.2558C15.6144 20.485 15.8752 20.6 16.1404 20.6C16.4057 20.6 16.6674 20.485 16.9203 20.2558C17.1398 20.0634 17.3403 19.8505 17.5193 19.6199L26.047 8.2985Z" fill="black"/>
</svg>
