<svg width="94" height="18" viewBox="0 0 94 18" fill="none" xmlns="http://www.w3.org/2000/svg">
<path d="M16.672 1.64715C16.9267 1.21095 17.2408 0.992564 17.6144 0.991978C17.9539 0.991978 18.2426 1.16177 18.4803 1.50136C18.7246 1.86613 18.8483 2.29828 18.8342 2.73705C18.8342 3.17324 18.7493 3.52454 18.5796 3.79094L18.5541 3.82695L12.3879 15.6832C12.105 16.214 11.7111 16.6777 11.233 17.0428C10.8145 17.3748 10.2985 17.5601 9.76431 17.5701C9.23015 17.5801 8.70751 17.4143 8.27687 17.0981C7.80296 16.7549 7.4149 16.3068 7.14306 15.7886L0.953202 3.97361C0.846805 3.79602 0.761056 3.60685 0.69763 3.40978C0.628002 3.19241 0.593611 2.96529 0.595756 2.73705C0.581963 2.29671 0.707012 1.86319 0.953202 1.49785C1.19033 1.15884 1.47898 0.98905 1.81915 0.988464C2.229 0.988464 2.55102 1.21886 2.78522 1.67964L8.72126 12.9879C8.85805 13.2083 9.007 13.4208 9.16741 13.6246C9.34306 13.8556 9.52837 13.9698 9.71544 13.9698C9.9025 13.9698 10.0843 13.8556 10.2626 13.6246C10.4212 13.4251 10.5619 13.212 10.6833 12.9879L16.672 1.64715Z" fill="white"/>
<path d="M19.7294 16.1918C19.4748 16.6274 19.1606 16.8455 18.7871 16.8461C18.4469 16.8461 18.1583 16.6763 17.9211 16.3367C17.6754 15.9724 17.5504 15.5402 17.5637 15.101C17.5637 14.6648 17.6489 14.3135 17.8193 14.0471L24.01 2.15657C24.2822 1.62014 24.6751 1.15417 25.1579 0.795295C25.5811 0.46311 26.101 0.277989 26.639 0.268004C27.1769 0.258019 27.7034 0.423715 28.1386 0.739965C28.6151 1.07687 29.0005 1.52682 29.2601 2.04943L35.4509 13.8671C35.5561 14.0451 35.6415 14.2342 35.7055 14.4309C35.7751 14.6483 35.8095 14.8754 35.8074 15.1036C35.8203 15.5432 35.695 15.9756 35.4491 16.3402C35.2114 16.6804 34.9227 16.8502 34.5832 16.8496C34.1733 16.8496 33.8513 16.6192 33.6171 16.1584L27.6784 4.84663C27.5407 4.62689 27.3918 4.41437 27.2323 4.20991C27.0566 3.98068 26.8713 3.86476 26.6851 3.86476C26.4989 3.86476 26.3154 3.98068 26.1371 4.20991C25.9791 4.40987 25.8384 4.62288 25.7164 4.84663L19.7294 16.1918Z" fill="white"/>
<path d="M37.4358 16.3402C37.1903 15.9759 37.0656 15.5436 37.0792 15.1045V2.73711C37.0651 2.29687 37.1899 1.86336 37.4358 1.49791C37.6741 1.15891 37.9627 0.989114 38.3017 0.988528H53.5629C54.0358 0.987839 54.4993 1.12023 54.9005 1.37056C55.3314 1.63907 55.7038 1.9915 55.9957 2.40689C56.3261 2.87725 56.5761 3.39932 56.7352 3.95172C56.9157 4.57188 57.0044 5.21513 56.9986 5.86101C57.0032 6.43172 56.9305 7.00042 56.7826 7.55163C56.6517 8.04243 56.459 8.51461 56.2091 8.95682C56.4585 9.3971 56.6512 9.86718 56.7826 10.3559C56.9289 10.8951 57.0016 11.4517 56.9986 12.0105C57.0056 12.6504 56.9167 13.2877 56.7352 13.9013C56.5738 14.4474 56.324 14.9633 55.9957 15.4286C55.704 15.8441 55.3315 16.1966 54.9005 16.4649C54.4993 16.7152 54.0358 16.8476 53.5629 16.8469H38.3017C37.9627 16.8464 37.6741 16.6774 37.4358 16.3402ZM39.5251 4.48393V7.17487H53.6903C53.945 7.17487 54.1657 7.05367 54.3525 6.81127C54.5393 6.56888 54.6326 6.25359 54.6326 5.86541C54.6391 5.52065 54.5368 5.18263 54.3402 4.89934C54.144 4.62123 53.9189 4.48188 53.6648 4.4813L39.5251 4.48393ZM39.5251 13.3542H53.6648C53.9195 13.3542 54.1446 13.221 54.3402 12.9546C54.5379 12.6794 54.6405 12.3474 54.6326 12.0087C54.6465 11.663 54.5435 11.3227 54.3402 11.0426C54.144 10.788 53.9189 10.6606 53.6648 10.6606H39.5251V13.3542Z" fill="white"/>
<path d="M74.3513 1.64715C74.606 1.21096 74.9202 0.992569 75.2937 0.991984C75.6339 0.991984 75.9225 1.16178 76.1596 1.50136C76.4051 1.86573 76.5302 2.29791 76.5171 2.73705C76.5171 3.17325 76.4322 3.52455 76.2624 3.79095L76.2369 3.82695L70.0708 15.6832C69.7866 16.2142 69.3915 16.6778 68.9124 17.0428C68.4939 17.3748 67.9778 17.5601 67.4437 17.5701C66.9095 17.5801 66.3869 17.4143 65.9562 17.0981C65.4823 16.7549 65.0942 16.3068 64.8224 15.7886L58.6325 3.97099C58.5262 3.79339 58.4404 3.60422 58.377 3.40715C58.3073 3.18978 58.273 2.96266 58.2751 2.73442C58.262 2.29527 58.3871 1.86309 58.6325 1.49873C58.8667 1.15973 59.1554 0.989935 59.4985 0.989349C59.9083 0.989349 60.2304 1.21974 60.4646 1.68053L66.4006 12.9888C66.5374 13.2091 66.6863 13.4217 66.8468 13.6255C67.0224 13.8565 67.2077 13.9707 67.3948 13.9707C67.5819 13.9707 67.7636 13.8565 67.9419 13.6255C68.1005 13.426 68.2413 13.2129 68.3626 12.9888L74.3513 1.64715Z" fill="white"/>
<path d="M77.4128 16.1917C77.1581 16.6274 76.844 16.8455 76.4705 16.846C76.1303 16.846 75.8416 16.6762 75.6045 16.3367C75.3588 15.9724 75.2338 15.5401 75.2471 15.101C75.2471 14.6648 75.3322 14.3135 75.5026 14.0471L81.6934 2.15656C81.9636 1.62014 82.3544 1.1536 82.8351 0.793524C83.2583 0.46134 83.7783 0.276219 84.3162 0.266234C84.8541 0.256249 85.3806 0.421946 85.8159 0.738196C86.2923 1.0751 86.6777 1.52505 86.9374 2.04765L93.1281 13.8653C93.2334 14.0433 93.3188 14.2324 93.3828 14.4291C93.4524 14.6465 93.4868 14.8736 93.4847 15.1018C93.4979 15.5409 93.3732 15.973 93.1281 16.3375C92.8898 16.6777 92.6012 16.8475 92.2622 16.8469C91.8523 16.8469 91.5303 16.6165 91.2961 16.1557L85.36 4.84749C85.2223 4.62775 85.0734 4.41523 84.9139 4.21077C84.7382 3.98154 84.5529 3.86562 84.3668 3.86562C84.1806 3.86562 83.997 3.98154 83.8187 4.21077C83.6607 4.41073 83.52 4.62374 83.398 4.84749L77.4128 16.1917Z" fill="white"/>
</svg>
